<?xml version="1.0" encoding="utf-8"?>
<!-- Generator: Adobe Illustrator 17.1.0, SVG Export Plug-In . SVG Version: 6.00 Build 0)  -->
<!DOCTYPE svg PUBLIC "-//W3C//DTD SVG 1.1//EN" "http://www.w3.org/Graphics/SVG/1.1/DTD/svg11.dtd">
<svg version="1.1" id="Layer_1" xmlns="http://www.w3.org/2000/svg" xmlns:xlink="http://www.w3.org/1999/xlink" x="0px" y="0px"
	 viewBox="0 0 389 74.5" enable-background="new 0 0 389 74.5" xml:space="preserve">
<title>LOGO@2x</title>
<desc>Created with Sketch.</desc>
<g id="Symbols">
	<g id="LOGO">
		<g>
			<path id="Fill-65" fill="#FFFFFF" d="M10.8,35.1c0,13.6,10.9,24.6,24.2,24.6l0,0c13.4,0,24.2-11,24.2-24.6l0,0
				c0-13.6-10.9-24.6-24.2-24.6l0,0C21.7,10.5,10.8,21.5,10.8,35.1"/>
			<g id="Group-168" transform="translate(0.000000, 0.045584)">
				<path id="Fill-67" fill="#D1D2D4" d="M35,10.8c-13.2,0-23.9,10.9-23.9,24.3S21.9,59.4,35,59.4c13.2,0,23.9-10.9,23.9-24.3
					S48.2,10.8,35,10.8 M35,59.7c-13.4,0-24.2-11-24.2-24.6c0-13.6,10.9-24.6,24.2-24.6s24.2,11,24.2,24.6
					C59.3,48.6,48.4,59.7,35,59.7"/>
				<path id="Fill-69" fill="#FFD200" d="M59.1,34.5c0,0.1-0.4,0.5-0.9,0.8c0,0,0,0,0,0c-0.6,0.3-1.5,0.7-2.6,1
					c-1.1,0.3-2.5,0.6-4,0.8c-1.5,0.2-3.2,0.4-5.1,0.6c0,0,0,0,0,0c-2.3,0.2-3.8,0.3-5.7,0.4c-2,0.1-4,0.1-6.1,0.1
					c0,0.3,0,0.5,0,0.8c0,1.9,0,3.7,0,5.4c0,9.4,0.1,9.4,0.3,15.1c13.3,0,24.1-10.9,24.1-24.4C59.1,35.1,59.1,34.7,59.1,34.5"/>
				<path id="Fill-71" fill="#221F20" d="M34.7,39c0,1.9,0,3.7,0,5.4c3.9,3.7,3.9,3.7,5.5,5.3c0.4-3.1,0.7-6.8,0.7-10.9
					c0-0.3,0-0.5,0-0.8c-2.4,0.1-4,0.1-6.1,0.1C34.7,38.4,34.7,38.7,34.7,39"/>
				<path id="Fill-73" fill="#221F20" d="M43.5,54c-0.8-1.4-1.6-2.3-3.4-4.2c-0.8,6-2.3,9.6-4.1,9.7c0.2,0,0.4,0,0.5,0
					c0.2,0,0.4,0,0.6,0C39.7,59.2,41.9,57.2,43.5,54"/>
				<path id="Fill-75" fill="#221F20" d="M46.2,44c0,0-1.4,7.3-2.7,10c0.8,1.5,0.8,2.1,0.5,3c2.3-1.8,4.3-4.5,5.6-7.9
					C48.7,47.3,48.2,46.4,46.2,44"/>
				<path id="Fill-77" fill="#221F20" d="M39.3,59.1c0.5-0.1,0.5-0.1,1.5-0.3l0.6-0.2c1.8-0.6,2.1-0.8,2.6-1.7
					c-1.6,1.2-3.3,2-5.2,2.3L39.3,59.1z"/>
				<path id="Fill-79" fill="#221F20" d="M50,53.1c3.5-4,5.6-9.6,5.6-16.1c0-0.3,0-0.5,0-0.8c-1.1,0.3-2.5,0.6-4,0.8
					c0,0.3,0,0.5,0,0.8c0,4.2-0.7,8-2,11.2C50.3,51,50.3,51.7,50,53.1"/>
				<path id="Fill-81" fill="#221F20" d="M46.5,37.7c-2.3,0.2-3.8,0.3-5.7,0.4c3.3,3.5,4,4.3,5.4,5.9c0.2-1.7,0.3-3.6,0.3-5.5
					C46.5,38.2,46.5,37.9,46.5,37.7"/>
				<path id="Fill-83" fill="#221F20" d="M29.8,11.9c1.3-0.6,2.6-1.1,5.2-1.3C33.2,10.8,31.4,11.3,29.8,11.9"/>
				<path id="Fill-85" fill="#E21933" d="M51.2,37.1c-1.3-0.2-2.3-2.3-1.8-4.5c-1.8,1.2-3.7-1.3-3.5-3.7c0.2-1.2,1-2.4,2.4-1.8
					c-0.6-2-1.3-3.9-2.1-5.6c-1.2,0.2-2.6,0.3-4.1,0.4c1.3,2,0,3.8-1.8,3.5c-1.3-0.2-2.5-1.6-2.2-3.2c-1.1,0.7-3.2,0.5-3.4-1.9
					c-0.1,5-0.1,11.3-0.1,17.9c6.4,0.1,13.9-0.6,16.9-1.1c0,0,0,0,0,0C51.4,37.1,51.3,37.1,51.2,37.1"/>
				<path id="Fill-87" fill="#E21933" d="M19.5,42c1.8-0.7,4,2.4,3.3,4.5c-0.4,1-1.3,1.2-2.3,0.7c0.5,1.8,1.2,3.5,2,5
					c1.3,0.2,2.7,0.3,4.2,0.4c-1.2-1.6-0.2-2.8,1.4-2.8c1.4,0.1,3.3,1.3,2.9,2.9c1.3-0.6,3.5-0.1,3.7,1.6c-0.1-3.7-0.1-9-0.1-15.4
					c0-0.3,0-0.5,0-0.8c-2,0-4.1-0.1-6.1-0.2c-4.4-0.2-7.3-0.4-11-1.1c0,0,0,0,0,0C19.5,37.6,20,40.4,19.5,42"/>
				<path id="Fill-89" fill="#E21933" d="M46.4,19.4L46.4,19.4C46.4,19.4,46.5,19.4,46.4,19.4L46.4,19.4L46.4,19.4
					c0.3,0,0.5-0.1,0.7-0.1c1.4-0.3,4.5-1,4.5-1.9c0,0,1.2,1.2,2.1,3c0.1,0.2,0.2,0.4,0.3,0.6c0.1,0.3,0.2,0.7,0.2,0.8
					c0,0.5-0.4,0.5-0.7,0.4c0,0-0.1,0-0.1,0c-1.2-0.6-1.6-1.7-1.9-2.2c-0.6,0.2-1.7,0.7-2.5,0.8c-0.1,0-0.3,0.1-0.4,0.1
					c1,1.7,2,3.7,2.7,5.7c1.2-1.3,3.1,1.1,3.2,3.3c0.1,1.3-0.5,2.5-1.7,2.1c1,1.8,0.7,4.4-1.2,5C51.3,31.1,50.3,25.9,46.4,19.4
					L46.4,19.4"/>
				<path id="Fill-91" fill="#E21933" d="M46.4,19.5L46.4,19.5c-3.1-4.8-5.5-6.5-8.6-7.7c-0.6-0.2-2.7-1.1-2.8-1.1l0,0
					c0.5,0.8,1.6,1.3,1.9,1.4c-0.1,0.3,0,0.9,1,1.6c0.2,0.1,0.3,0.2,0.5,0.3c1.6,0.8,1.9,0.2,2-0.1c0,0,0,0,0,0
					c0.5,0.4,1.4,1.1,2.4,2.3c0.6,0.7,1.2,1.4,1.6,2c-1,0.1-2.2,0.2-3.5,0.3c-0.1-1.6-1.2-2.3-1.9-2.6c-1.5-0.6-2,1.2-1.4,2.5
					c-1.2-0.7-2.6-0.1-2.8,1.9C39.5,20.2,42.8,20,46.4,19.5L46.4,19.5L46.4,19.5"/>
				<path id="Fill-93" fill="#E21933" d="M46.7,15c0,0,0-0.1,0-0.2c0-0.1,0.1-0.1,0.1-0.1s0-0.1,0.1-0.1c0.2-0.1,1-0.2,3,1.2
					c-4.2-3.3-8.7-4.7-12.5-5.1c-0.5-0.1-1.5-0.1-1.5-0.1c1.2,0.1,2,0.4,2.2,0.5c0.2,0.1,0.3,0.1,0.4,0.2c0,0,0,0,0,0
					c0.2,0,0.5,0.1,0.9,0.2c0.4,0.1,1,0.3,1.5,0.6c0.6,0.3,1.4,0.9,1.4,1.2c-0.1,0.1-0.2,0.1-0.5,0c1.4,1,3.5,3,4.7,4.4
					c0.8-0.2,2.1-0.3,2.6-0.5C49,17.2,47.1,15.8,46.7,15"/>
				<path id="Fill-95" fill="#E21933" d="M22.2,53.5c-2.1-0.4-3.3-0.7-4-1.1c-0.1-0.1-0.2-0.1-0.2-0.1c0,0-1.2-1.2-2.2-2.5
					c-0.7-1-1.4-2.1-1.4-2.2c0,0,0.2,0,0.3,0c1.1,0.4,2.8,3.4,2.8,3.4c0.7,0.3,1.5,0.5,2.6,0.7c-1-1.5-1.8-3.2-2.5-5.1
					c-1.5,0.8-3.4-3.3-2.8-5c0.1-0.3,0.5-1.1,1.5-0.3c-0.8-1.8-0.6-4.5,1.3-4.5C17.6,42.9,18.4,48,22.2,53.5"/>
				<path id="Fill-97" fill="#E21933" d="M34.8,54.7c-0.2,0.8-1.4,1.7-3,1c0.8,1,0.1,1.9-1.3,1.7c-1.1-0.2-2.3-1.1-2.4-1.9
					c-1.3-0.1-2.5-0.2-3.6-0.4c1,1.2,2.1,2.2,3.4,2.9c0.1-0.1,0.4,0,1.1,0.2c0.9,0.3,1.8,0.8,2.7,1.1c0,0-0.2,0-0.2,0
					c-0.7-0.1-0.9-0.1-1.3-0.2c-1.8-0.4-4.9-1.4-8-5.5h0h0c3.7,0.6,7.4,0.8,12.6,0.9C34.8,54.5,34.8,54.6,34.8,54.7"/>
				<path id="Fill-99" fill="#FFD200" d="M35,10.6c-12.9,0-23.8,10.7-24,24l0,0c0,0,0.1,0.3,0.6,0.6l0,0l0,0
					c0.5,0.3,1.3,0.7,2.2,0.9c1.2,0.3,2.5,0.6,3.7,0.8l0,0c3.6,0.6,6.6,0.9,11,1.1c2,0.1,4.1,0.2,6.1,0.2c0-1.2,0-8.3,0-15.2
					c0-0.9,0-1.8,0-2.7C34.8,15.8,34.9,11.2,35,10.6"/>
				<path id="Fill-101" fill="#221F20" d="M46.5,56.6c-1.4,0.8-1.6,0.8-3.5,1.6c-0.5,0.2-1,0.3-1.5,0.5c3.2-0.9,7.7-4.6,8.5-5.5
					c-0.4,0.9-0.7,1.5-1.6,2.3C48.1,55.6,47,56.3,46.5,56.6"/>
				<path id="Fill-103" fill="#221F20" d="M13.9,36.2c-1-0.2-1.7-0.6-2.2-0.9c0.3-8.8,5.1-16.7,12.2-21c-1.7,1.5-2.4,2.4-3.2,4.4
					C16.6,23.3,14,29.5,13.9,36.2"/>
				<path id="Fill-105" fill="#221F20" d="M23.8,14.2c1.8-1.3,2.8-2.2,5.6-2.9c2-0.5,3.7-0.7,5.6-0.7C30.9,10.8,27.1,12.2,23.8,14.2
					"/>
				<path id="Fill-107" fill="#221F20" d="M22.5,37.6c-1.8-0.2-3.4-0.4-4.9-0.7c0.1-4.4,1-8.7,2.6-12.4c0.6,2.5,1.1,3.8,2.8,6.7
					C22.7,33.3,22.5,35.4,22.5,37.6"/>
				<path id="Fill-109" fill="#221F20" d="M34.8,20.2c0,2.7,0,5.5-0.1,7.6c0,2.1,0,3.7,0,3.9c-2.4-2.5-3.6-3.9-5.4-6.2
					c1.2-7.6,3.3-13.6,5.7-15C34.9,11.3,34.8,15.7,34.8,20.2"/>
				<path id="Fill-111" fill="#221F20" d="M26.3,19.9c-1.5,3.2-2.6,7.1-3.3,11.3c1.5,2.2,2.4,3.5,5.3,6.8c0-4.4,0.4-8.6,1-12.4
					C27.6,23.1,27,22,26.3,19.9"/>
				<path id="Fill-113" fill="#221F20" d="M58.2,35.3c0,0.3,0,0.5,0,0.8c0,8.6-4.1,15.8-10.6,19.8l-0.2,0.1
					c3.1-1.9,6.9-5.1,9.4-10.5c2.6-5.3,2.3-11.1,2.3-11.1C59,34.8,58.6,35.1,58.2,35.3"/>
				<path id="Fill-115" fill="#221F20" d="M29.8,11.9c-3.5,1.4-6.7,3.8-9.2,6.8c-0.7,2.2-0.7,3.5-0.3,5.8c1.6-3.7,3.7-6.9,6.3-9.3
					C27.3,13.8,27.8,12.9,29.8,11.9"/>
				<path id="Fill-117" fill="#221F20" d="M26.3,20c-0.4-2-0.5-3,0.2-4.8c2.5-2.3,5.4-4.1,8.5-4.6C31.6,11.5,28.5,15.1,26.3,20"/>
				<path id="Fill-119" fill="#FEFEFE" d="M8.3,19.1l-2-1c-0.4-0.2-0.5-0.5-0.3-0.9l0-0.1L5.7,17l-0.9,1.9L5.1,19l0-0.1
					c0.2-0.4,0.3-0.5,0.5-0.5c0.1,0,0.3,0.1,0.6,0.2l1.7,0.9c1.3,0.6,1.1,1.7,0.7,2.4C8.3,22.6,7.8,23,7.2,23
					c-0.3,0-0.6-0.1-0.9-0.2l-2-1C4,21.6,3.9,21.4,4.1,21l0.1-0.1l-0.3-0.1l-1,2l0.3,0.1l0-0.1c0.2-0.3,0.3-0.4,0.4-0.4
					c0.1,0,0.2,0,0.3,0.1l2.1,1.1c0.3,0.2,0.7,0.2,1,0.2c0.8,0,1.5-0.5,2-1.5C9.9,20.7,9.2,19.6,8.3,19.1"/>
				<path id="Fill-121" fill="#FEFEFE" d="M10.8,11.2c0-0.1,0.1-0.3,0.3-0.5l0-0.1l-0.2-0.2L9.6,12l0.2,0.2l0-0.1
					c0.3-0.3,0.4-0.4,0.5-0.4c0.1,0,0.2,0.1,0.3,0.2l2.4,2l-5.4,0.4l-0.9,1.1L7,15.6l0-0.1c0.2-0.2,0.3-0.3,0.5-0.4l3,2.6
					c0.2,0.2,0.3,0.4,0,0.8l-0.1,0.1l0.2,0.2l1.3-1.6L11.9,17l0,0.1c-0.3,0.3-0.4,0.4-0.5,0.4c-0.1,0-0.2-0.1-0.4-0.2l-2.5-2.2
					l6-0.4l0.2-0.2l-3.5-3C10.8,11.3,10.8,11.3,10.8,11.2"/>
				<path id="Fill-123" fill="#FEFEFE" d="M17.1,11.8c-0.2,0.2-0.3,0.2-0.5,0.2c-0.1,0-0.2-0.1-0.4-0.3L14,9
					c-0.3-0.4-0.3-0.6,0.1-0.9l0.1,0L14,7.9l-1.6,1.4l0.2,0.2l0.1,0c0.2-0.1,0.3-0.2,0.4-0.2c0.1,0,0.2,0.1,0.4,0.2l2.2,2.7
					c0.3,0.4,0.3,0.5,0,0.8l0,0l0.2,0.2l1.6-1.4L17.1,11.8L17.1,11.8z"/>
				<path id="Fill-125" fill="#FEFEFE" d="M20.2,4.2L20.2,4.2l-0.1-0.3l-1.8,1l0.1,0.3l0.1,0C18.8,5,19,4.9,19.1,4.9
					c0.1,0,0.1,0,0.2,0.1c0,0.1,0.1,0.2,0.1,0.5L20,9l-3-2.3c-0.1-0.1-0.2-0.2-0.2-0.2c0-0.1,0.2-0.3,0.5-0.5l0.1,0l-0.2-0.3
					l-2.1,1.2L15.4,7l0.1,0c0.2-0.1,0.3-0.1,0.4-0.1c0.1,0,0.3,0.1,0.5,0.3l3.8,3l0.4-0.3l-0.8-4.7C19.8,4.6,19.9,4.4,20.2,4.2"/>
				<path id="Fill-127" fill="#FEFEFE" d="M26.9,5.5L26.9,5.5c0,0.8-0.1,1-0.5,1.2l-1.2,0.4c-0.1,0-0.2,0-0.2,0
					c-0.1,0-0.2,0-0.3-0.3l-0.5-1.6l1.2-0.4c0.1,0,0.2-0.1,0.2-0.1c0.1,0,0.2,0.1,0.4,0.4l0,0.1l0.3-0.1l-0.6-1.6l-0.3,0.1l0,0.1
					c0.1,0.5,0,0.6-0.2,0.7L24,4.9l-0.6-1.8l1.6-0.5c0.1,0,0.1,0,0.2,0c0.1,0,0.3,0.1,0.6,0.6l0,0.1L26,3.1l-0.5-1.2l-3.8,1.3
					l0.1,0.3L22,3.4c0.1,0,0.2-0.1,0.3-0.1c0.2,0,0.3,0.1,0.4,0.4l1.1,3.3c0.1,0.2,0.1,0.4,0,0.5c-0.1,0.1-0.2,0.2-0.5,0.3L23.1,8
					l0.1,0.3l4.2-1.5l-0.3-1.4L26.9,5.5z"/>
				<path id="Fill-129" fill="#FEFEFE" d="M31.4,2.3c0,0.4,0,0.7-0.2,1c-0.2,0.3-0.6,0.4-1.1,0.5l-0.1,0c-0.1,0-0.2,0-0.3,0
					l-0.3-2.6c0.1,0,0.2,0,0.3-0.1C30.8,1.1,31.3,1.4,31.4,2.3L31.4,2.3z M34.7,5.5c-0.6,0-1.1-0.2-1.6-0.6l-0.7-0.6
					C32,4,31.7,3.8,31.4,3.6c0.6-0.3,0.9-0.9,0.8-1.5c-0.1-1-1-1.4-2.4-1.3c-0.5,0.1-0.7,0.1-1,0.1c-0.1,0-0.2,0-0.3,0.1
					c-0.3,0-0.5,0.1-0.7,0.1l-0.1,0l0,0.3l0.3,0c0.1,0,0.1,0,0.2,0c0.3,0,0.4,0.1,0.4,0.5l0.4,3.5C29.1,6,29,6.1,28.5,6.1l-0.2,0
					l0,0.3l2.4-0.3l0-0.3l-0.3,0c-0.1,0-0.1,0-0.2,0c-0.3,0-0.4-0.1-0.5-0.5l-0.2-1.3c0.1,0,0.2,0,0.3,0c0.2,0,0.3,0,0.5-0.1h0
					c0.1,0.1,0.4,0.3,0.9,0.6l0.6,0.5c0.8,0.7,1.2,0.9,2.7,0.7l0.1,0L34.7,5.5L34.7,5.5z"/>
				<g id="Group-133" transform="translate(35.242822, 0.000000)">
					<g id="Clip-132">
					</g>
					<defs>
						<filter id="Adobe_OpacityMaskFilter" filterUnits="userSpaceOnUse" x="0.4" y="0.5" width="3.4" height="5.6">
							<feColorMatrix  type="matrix" values="1 0 0 0 0  0 1 0 0 0  0 0 1 0 0  0 0 0 1 0"/>
						</filter>
					</defs>
					<mask maskUnits="userSpaceOnUse" x="0.4" y="0.5" width="3.4" height="5.6" id="mask-4">
						<g filter="url(#Adobe_OpacityMaskFilter)">
							<polygon id="path-3" fill="#FFFFFF" points="3.9,0.5 0.4,0.5 0.4,6.1 3.9,6.1 							"/>
						</g>
					</mask>
					<path id="Fill-131" mask="url(#mask-4)" fill="#FEFEFE" d="M2.5,2.8C2,2.4,1.4,2,1.5,1.5c0-0.4,0.4-0.7,0.9-0.6
						c0.5,0,1,0.4,1.2,1l0,0l0.3,0L3.8,0.8l-0.2,0l0,0c0,0-0.1,0-0.1,0h0c-0.1,0-0.2,0-0.3-0.1C3,0.7,2.8,0.6,2.3,0.5
						C1.5,0.5,0.8,1,0.7,1.7C0.6,2.5,1.3,3,2,3.5C2.6,4,3.1,4.4,3.1,4.9C3,5.5,2.5,5.8,2,5.7C1.3,5.7,0.8,5.2,0.7,4.5l0-0.1l-0.3,0
						l0.1,1.4l0.2,0l0,0c0,0,0.1-0.1,0.1-0.1h0c0,0,0.1,0,0.2,0.1C1.4,5.9,1.7,6.1,2,6.1c0.1,0,0.1,0,0.2,0h0c0.9,0,1.6-0.6,1.7-1.4
						C3.9,3.9,3.2,3.3,2.5,2.8"/>
				</g>
				<path id="Fill-134" fill="#FEFEFE" d="M41.2,1.4L41.2,1.4c0.5,0.1,0.6,0.3,0.5,0.6L41,5.5c-0.1,0.5-0.2,0.5-0.4,0.5
					c-0.1,0-0.1,0-0.2,0l-0.1,0l-0.1,0.3l2.1,0.5l0.1-0.3l-0.1,0c-0.3-0.1-0.4-0.1-0.5-0.2c-0.1-0.1-0.1-0.2,0-0.5l0.7-3.4
					c0.1-0.4,0.2-0.5,0.4-0.5c0.1,0,0.2,0,0.3,0l0.1,0l0.1-0.3l-2.1-0.5L41.2,1.4z"/>
				<path id="Fill-136" fill="#FEFEFE" d="M49.6,3.7C49.6,3.8,49.6,3.8,49.6,3.7c-0.1,0-0.1,0-0.2,0l-3.7-1.5c0,0-0.1,0-0.1-0.1
					c0,0,0,0,0-0.1l0-0.1L45.4,2l-0.7,1.3L45,3.4l0-0.1c0.3-0.5,0.5-0.6,0.6-0.6c0,0,0.1,0,0.2,0l1.3,0.5L45.6,7
					c-0.1,0.3-0.2,0.4-0.4,0.4c-0.1,0-0.2,0-0.4-0.1l-0.3-0.1l-0.1,0.3l2.5,1l0.1-0.3L46.7,8c-0.2-0.1-0.3-0.2-0.4-0.3
					c0-0.1,0-0.2,0-0.4l1.5-3.7l1.3,0.5c0.2,0.1,0.3,0.3,0.2,1l0,0.1l0.3,0.1l0.4-1.4L49.6,3.7L49.6,3.7z"/>
				<path id="Fill-138" fill="#FEFEFE" d="M54.5,7.1L54.5,7.1c0.3,0.2,0.4,0.3,0.4,0.4c0,0.1-0.1,0.2-0.3,0.3l-1.9,1l0-2.3
					C52.7,6,52.8,6,52.8,6c0.1,0,0.2,0.1,0.4,0.2l0.1,0L53.5,6l-1.9-1.3L51.4,5l0.1,0c0.4,0.3,0.5,0.5,0.5,1.2l-0.1,2.7l-0.6,1
					c-0.2,0.3-0.4,0.4-0.8,0.1l-0.2-0.1l-0.2,0.3l2,1.3l0.2-0.2l-0.1-0.1c-0.2-0.1-0.3-0.3-0.3-0.4c0-0.1,0-0.2,0.1-0.4l0.7-1
					L55,8.2C55.2,8.1,55.4,8,55.5,8c0.2,0,0.4,0.1,0.6,0.2l0.1,0L56.3,8l-1.7-1.1L54.5,7.1z"/>
				<path id="Fill-140" fill="#FEFEFE" d="M62.4,15.9c-0.1,0.7-0.5,1.3-1.1,1.7c-0.5,0.4-1,0.6-1.6,0.6c-0.6,0-1-0.2-1.4-0.7
					c-0.8-1.1-0.5-2.5,0.6-3.4c0.4-0.3,1-0.6,1.5-0.6c0.6,0,1.1,0.3,1.4,0.7C62.3,14.8,62.5,15.3,62.4,15.9 M62.4,14.2
					c-0.6-0.8-1.5-1.3-2.4-1.3c-0.6,0-1.2,0.2-1.7,0.6c-1.2,0.9-1.3,2.7-0.3,4.1c0.6,0.8,1.5,1.2,2.4,1.2h0c0.6,0,1.2-0.2,1.7-0.6
					C63.3,17.3,63.4,15.6,62.4,14.2"/>
				<path id="Fill-142" fill="#FEFEFE" d="M65.1,18.6l-0.3,0.1l0,0.1c0.2,0.5,0.1,0.6-0.4,0.8L61.6,21c-0.3,0.1-0.4,0.2-0.5,0.2
					c-0.1,0-0.2-0.1-0.4-0.3l0-0.1l-0.3,0.1l0.9,1.9l0.3-0.1l0-0.1c-0.1-0.3-0.2-0.4-0.1-0.5c0-0.1,0.1-0.2,0.3-0.3l1.5-0.8l0.6,1.3
					c0.1,0.3,0.1,0.5-0.3,0.7l-0.1,0l0.1,0.3l1.4-0.7L65,22.5l-0.1,0c-0.3,0.1-0.5,0.1-0.6-0.2l-0.7-1.4l1.6-0.8l0.6,1.4
					c0.2,0.4,0.1,0.6-0.3,0.8l-0.1,0l0.1,0.3l1-0.5L65.1,18.6z"/>
				<path id="Fill-144" fill="#FEFEFE" d="M6.6,55.8l2.9-5.5l0,0l-4,2.6c-0.5,0.3-0.3,0.7,0,1.1l-0.2,0.1l-1.3-1.8l0.2-0.1
					c0.4,0.6,0.6,0.6,1.4,0.1L9.1,50c0.6-0.4,0.7-0.5,0.4-1.1l0.2-0.1l0.9,1.3l-2.8,5.2l5.7-1.1l0.9,1.3l-0.1,0.1
					c-0.3-0.4-0.5-0.6-0.7-0.3l-3.6,3.1c-0.7,0.6-0.7,0.7-0.2,1.3l-0.2,0.1l-1.6-2.2l0.2-0.1c0.3,0.4,0.7,0.7,1.1,0.4l3.6-3l0,0
					l-6,1.2L6.6,55.8z"/>
				<path id="Fill-146" fill="#FEFEFE" d="M16.8,62l-0.6,2c0,0.1-0.1,0.3-0.2,0.4c-0.2,0.2-0.4,0.2-0.9-0.2L15,64.1l-0.1,0.2
					l2.3,1.7l0.1-0.2c-0.4-0.3-0.5-0.5-0.4-1.1l1.7-6.1l-0.7-0.5l-0.1,0.2l-4.6,3.1c-0.8,0.5-1,0.6-1.5,0.2l-0.1,0.2l1.9,1.4
					l0.1-0.2l-0.1-0.1c-0.5-0.3-0.6-0.6-0.5-0.8c0.1-0.1,0.4-0.3,0.6-0.4l1.5-1L16.8,62z M16.9,61.5l-1.5-1.1l2.2-1.5L16.9,61.5z"/>
				<path id="Fill-148" fill="#FEFEFE" d="M22.3,65.3c0.2,0.1,0.3,0.1,0.5,0.2c0.3,0.1,0.4,0.1,0.7,0.2c0.2,0.2,0.4,0.7,0.7,1.3
					l0.4,0.9c0.6,1.2,0.9,1.7,2.6,2.3l0.1-0.2c-0.7-0.3-1.2-0.9-1.6-1.7l-0.5-1.1c-0.3-0.6-0.5-1-0.8-1.4c0.9,0.1,1.6-0.4,1.9-1.1
					c0.4-1-0.2-2.1-2-2.7c-0.6-0.2-0.8-0.3-1.2-0.4c-0.4-0.1-1-0.3-1.3-0.4l-0.1,0.2l0.2,0.1c0.6,0.2,0.7,0.4,0.5,1.1l-1.5,4.2
					c-0.2,0.7-0.5,0.8-1.1,0.5l-0.2-0.1l-0.1,0.2l2.8,1l0.1-0.2l-0.2-0.1c-0.5-0.2-0.7-0.4-0.5-1L22.3,65.3z M23.5,61.9
					c0.2,0,0.3,0.1,0.5,0.2c1.5,0.6,1.7,1.4,1.4,2.3c-0.4,1.2-1.3,1.4-2.4,1c-0.2-0.1-0.4-0.1-0.6-0.2L23.5,61.9z"/>
				<path id="Fill-150" fill="#FEFEFE" d="M34.1,65.1c0.4-0.6,0.2-0.7-0.5-0.8l0-0.2l2.4,0.2l0,0.2c-0.7,0-1,0.3-1.4,0.7l-2,2.8
					l-0.1,1.6c0,0.6,0.1,0.8,0.8,0.9l0.1,0l0,0.2l-2.9-0.2l0-0.2l0.2,0c0.6,0.1,0.9-0.2,0.9-0.7l0.1-1.5L30.2,65
					c-0.4-0.9-0.7-1-1.3-1.1l0-0.2l2.8,0.2l0,0.2c-0.8-0.1-0.9,0.1-0.6,0.6l1.4,2.8L34.1,65.1z"/>
				<path id="Fill-152" fill="#FEFEFE" d="M42.8,69.9l-4.6,0.8l0-0.2l0.3-0.1c0.5-0.1,0.6-0.3,0.5-0.8L38.3,65
					c-0.1-0.6-0.3-0.8-0.9-0.6l-0.1,0l0-0.2l3-0.5l0,0.2l-0.4,0.1c-0.7,0.1-0.8,0.2-0.7,0.9l0.8,4.8c0,0.3,0.2,0.4,0.5,0.3l1.5-0.3
					c0.6-0.1,0.8-0.4,1.2-1.4l0.2,0L42.8,69.9z"/>
				<path id="Fill-154" fill="#FEFEFE" d="M48.1,64.9l1.4,1.5c0.1,0.1,0.2,0.2,0.3,0.4c0.1,0.3-0.1,0.4-0.6,0.7l-0.3,0.1l0.1,0.2
					l2.6-1.1l-0.1-0.2c-0.5,0.2-0.7,0.2-1.1-0.2l-4.2-4.6L45.3,62l0.2,0.2l0.2,5.6c0,1,0,1.1-0.6,1.4l0.1,0.2l2.2-0.9l-0.1-0.2
					l-0.2,0.1c-0.5,0.2-0.8,0.2-0.9,0c-0.1-0.1-0.1-0.5-0.1-0.7l-0.1-1.8L48.1,64.9z M47.8,64.6l-1.7,0.7L46,62.7L47.8,64.6z"/>
				<path id="Fill-156" fill="#FEFEFE" d="M59.4,60.8l-7.8-0.9l2.9,3.5c0.5,0.6,0.7,0.6,1.4,0l0.1,0.2l-1.9,1.6L54,65l0,0
					c0.5-0.4,0.5-0.7,0.2-1.1l-3.3-4c-0.3,0-0.6,0.1-0.8,0.4L50,60.1l1.3-1.1l7.1,0.8l-2.6-3.3c-0.4-0.5-0.6-0.5-1.3,0.1l-0.1-0.2
					l1.9-1.6l0.1,0.2c-0.6,0.5-0.6,0.7-0.4,1l3.7,4.6L59.4,60.8z"/>
				<path id="Fill-158" fill="#FEFEFE" d="M61.9,56.4c0.5,0.3,0.5,0.6,0.2,1.1L62,57.7l0.2,0.1l1.8-2.8c1.4-2.3,0.5-4.3-0.8-5.2
					c-1.4-0.9-3.3-0.7-4.8,1.7c-0.3,0.5-0.6,1-0.9,1.5c-0.3,0.5-0.6,0.9-0.7,1.3l0.2,0.1l0.1-0.2c0.3-0.5,0.6-0.6,1.1-0.2L61.9,56.4
					z M57.9,52.7c0.1-0.1,0.2-0.4,0.4-0.7c0.8-1.2,1.5-1.7,2.2-1.8c0.9-0.2,1.7,0.1,2.3,0.5c0.9,0.6,1.3,1.4,1.4,2
					c0.2,0.9,0,1.5-0.7,2.7c-0.4,0.7-0.6,0.7-0.9,0.4L57.9,52.7z"/>
				<path id="Fill-160" fill="#FEFEFE" d="M1.5,33.3v4.5c0,0.2,0,0.3,0.3,0.3h0.4v0.1H0.3v-0.1h0.4C1,38.1,1,38,1,37.8v-3.9
					c-0.2,0.2-0.7,0.5-1,0.6L0,34.4c0.4-0.3,1.1-0.9,1.3-1.2H1.5z"/>
				<path id="Fill-162" fill="#FEFEFE" d="M5.9,34.4c0,0.4-0.2,0.8-0.6,1.1C4.2,35,4,34.7,4,34.3c0-0.5,0.4-0.9,0.9-0.9
					C5.5,33.4,5.9,33.8,5.9,34.4 M6.3,34.4c0-0.6-0.6-1.1-1.4-1.1c-0.8,0-1.4,0.6-1.4,1.3c0,0.5,0.3,0.9,1.1,1.3
					c-0.8,0.3-1.1,0.7-1.1,1.3c0,0.7,0.7,1.3,1.5,1.3c0.9,0,1.5-0.6,1.5-1.4c0-0.6-0.3-1-1.2-1.4C6,35.3,6.3,34.9,6.3,34.4 M6,37.1
					c0,0.6-0.4,1.1-1,1.1c-0.6,0-1-0.5-1-1.2c0-0.5,0.3-0.9,0.8-1.2C5.6,36.3,6,36.6,6,37.1"/>
				<path id="Fill-164" fill="#FEFEFE" d="M63.6,33.8h1.8c0.1,0,0.2,0,0.2-0.1h0.1l-0.1,0.6h-1.9l-0.1,1.4c0.2-0.1,0.5-0.2,0.8-0.2
					c0.9,0,1.6,0.7,1.6,1.6c0,1-0.8,1.7-1.8,1.7c-0.6,0-1.1-0.2-1.1-0.5c0-0.1,0.1-0.2,0.3-0.2c0.4,0,0.6,0.5,1,0.5
					c0.6,0,1.1-0.6,1.1-1.3c0-0.7-0.5-1.3-1.2-1.3c-0.3,0-0.6,0.1-0.8,0.3l-0.1-0.1L63.6,33.8z"/>
				<path id="Fill-166" fill="#FEFEFE" d="M69.5,33.7c-1.6,0.5-2.6,1.6-2.6,3.1c0,1.2,0.7,2,1.6,2c0.8,0,1.5-0.7,1.5-1.6
					c0-0.8-0.6-1.4-1.4-1.4c-0.4,0-0.7,0.1-1.1,0.5c0.2-1.1,0.8-1.9,2-2.4L69.5,33.7z M69.5,37.3c0,0.9-0.4,1.4-0.9,1.4
					c-0.5,0-1-0.4-1-1.8c0-0.3,0-0.4,0-0.5c0.5-0.4,0.8-0.5,1-0.5C69.1,36,69.5,36.5,69.5,37.3L69.5,37.3z"/>
			</g>
		</g>
	</g>
</g>
<g>
	<path fill="#FEFEFE" d="M95.8,19.5L88,3.2h-0.1L87.1,17c-0.1,1.6,1.1,1.9,2.4,2v0.6h-6.4v-0.6c2.2,0,2.5-0.5,2.7-3.3l0.7-11.9
		c0.1-2,0.1-2.6-1.8-2.7V0.5h4.6l7.4,15.4l7.3-15.4h4.5V1c-1.5,0.1-2.1,0.2-2,1.2l1,13.9c0.2,2.8,0.4,2.8,2.7,2.8v0.6h-7.9v-0.6
		c1.4,0,2.8-0.4,2.7-2l-0.9-13.7h-0.1l-7.6,16.3H95.8"/>
	<path fill="#FEFEFE" d="M117.5,11.1l-1.8,4.8c-0.2,0.6-0.6,1.5-0.6,1.9c0,0.8,0.8,1.1,2.5,1.1h0.5v0.6H111v-0.6c2,0,2.3-0.4,3.3-3
		l5.6-15.2L119.6,0h2.7l6.4,17c0.6,1.6,1.3,1.9,2.8,1.9v0.6H123v-0.6h0.8c1.7,0,2.4-0.2,2.4-1c0-0.5-0.2-0.9-0.3-1.3l-2.1-5.6H117.5
		 M120.6,2.6L118,9.7h5.3L120.6,2.6z"/>
	<path fill="#FEFEFE" d="M164.1,3.2c1-1.7,0.4-2.2-1.6-2.2V0.5h6.9V1c-2.1,0.2-3,1-3.8,2.4l-5.1,8.6v4.6c0,1.6,0.6,2.3,2.4,2.3h0.4
		v0.6H155v-0.6h0.6c1.9,0,2.4-0.7,2.4-2.2v-4.3l-5.4-8.5c-1.5-2.4-2.2-2.8-4.2-2.8V0.5h8.1V1c-2.4,0-2.5,0.6-1.6,2l4.9,7.6
		L164.1,3.2"/>
	<path fill="#FEFEFE" d="M184.4,19.5h-13.7v-0.6h1c1.4,0,1.9-0.5,1.9-2V3.3c0-1.6-0.5-2.3-2.4-2.3h-0.4V0.5h9V1h-1.1
		c-2,0-2.5,0.2-2.5,2.1v14.1c0,0.8,0.3,1.1,1.2,1.1h4.5c1.8,0,2.4-0.7,4.3-3.4h0.6L184.4,19.5"/>
	<path fill="#FEFEFE" d="M193.6,11.1l-1.8,4.8c-0.2,0.6-0.6,1.5-0.6,1.9c0,0.8,0.8,1.1,2.5,1.1h0.5v0.6h-7.1v-0.6c2,0,2.3-0.4,3.3-3
		L196,0.7L195.7,0h2.7l6.4,17c0.6,1.6,1.3,1.9,2.8,1.9v0.6h-8.4v-0.6h0.8c1.7,0,2.4-0.2,2.4-1c0-0.5-0.2-0.9-0.3-1.3l-2.1-5.6H193.6
		 M196.8,2.6l-2.6,7.1h5.3L196.8,2.6z"/>
	<path fill="#FEFEFE" d="M228.5,19.7L212.7,3.1v13.1c0,2.2,0.5,2.7,3.1,2.7v0.6h-7.1v-0.6h0.1c1.9,0,2.5-0.6,2.5-2.1V1.8
		c-0.7-0.5-1.5-0.7-2.6-0.8V0.5h4.8l14.4,15V3.3c0-1.9-0.6-2.2-3-2.3V0.5h7.2V1c-2.3,0-2.8,0.4-2.8,1.6v17.1H228.5"/>
	<path fill="#FEFEFE" d="M236,3.5c0-2-0.5-2.5-2.3-2.5h-0.6V0.5c1.1-0.1,2.6-0.1,4.3-0.2c1.7-0.1,3.6-0.1,5.1-0.1
		c8.1,0,11.7,4.1,11.7,9.2c0,4.6-3.6,10.2-11.3,10.2h-9.8v-0.6h0.5c1.7,0,2.4-0.5,2.4-2.2V3.5 M238.6,17.2c0,1.3,0.1,1.7,2.5,1.7
		c4.1,0,5.8-0.6,7.7-2.5c1.1-1.1,2.5-3.5,2.5-6.6c0-2.3-0.6-4.8-2.4-6.6c-1.4-1.4-3.6-2.5-7.9-2.5c-1.3,0-2.1,0.1-2.4,0.1V17.2z"/>
	<path fill="#FEFEFE" d="M91.9,43.1c0,1.7,0.6,2.2,2.4,2.2h1.1v0.6h-9.6v-0.6h1.1c1.9,0,2.4-0.6,2.4-2.2V28H84
		c-1.2,0-1.8,0.7-2.2,3.4h-0.6l0.5-5h0.6c0,0.2,0.2,0.3,0.3,0.4c0.2,0.1,0.4,0.1,0.6,0.1H98c0.4,0,0.9-0.1,0.9-0.5h0.6l0.5,5h-0.6
		c-0.5-2.7-1-3.4-2.2-3.4h-5.3V43.1"/>
	<path fill="#FEFEFE" d="M119.3,46.3c-2.3,0-4.2-0.4-6.9-4.6c-0.4-0.6-2.1-3.3-2.5-3.8h-4.1V42c0,2.7,0.2,3.4,3.3,3.4v0.6h-8.8v-0.6
		c2.9,0,2.9-0.8,2.9-3.4V29.7c0-1.5-0.5-2.1-3-2.1V27c2.6-0.2,5.2-0.3,7.8-0.3c2.4,0,3.8,0.3,5.1,0.9c1.3,0.6,3.1,2,3.1,4.5
		c0,0.8-0.3,3.7-4,5l3.7,5.7c1.4,2.1,2.4,2.9,3.4,3.1V46.3 M105.7,37.4h1.2c1.3,0,2.3,0,3.4-0.3c2.1-0.6,2.9-3,2.9-4.8
		c0-1.2-0.4-3.4-2.4-4.3c-1.5-0.7-3.4-0.6-5.1-0.6V37.4z"/>
	<path fill="#FEFEFE" d="M125.4,37.5l-1.8,4.8c-0.2,0.6-0.6,1.5-0.6,1.9c0,0.8,0.8,1.1,2.5,1.1h0.5v0.6h-7.1v-0.6c2,0,2.3-0.4,3.3-3
		l5.6-15.2l-0.3-0.7h2.7l6.4,17c0.6,1.6,1.3,1.9,2.8,1.9v0.6h-8.4v-0.6h0.8c1.7,0,2.4-0.2,2.4-1c0-0.5-0.2-0.9-0.3-1.3l-2.1-5.6
		H125.4 M128.5,29l-2.6,7.1h5.3L128.5,29z"/>
	<path fill="#FEFEFE" d="M160.3,46.1l-15.9-16.6v13.1c0,2.2,0.5,2.7,3.1,2.7v0.6h-7.1v-0.6h0.1c1.9,0,2.5-0.6,2.5-2.1V28.2
		c-0.7-0.5-1.5-0.7-2.6-0.8v-0.6h4.8l14.4,15V29.7c0-1.9-0.5-2.2-3-2.3v-0.6h7.2v0.6c-2.3,0-2.8,0.4-2.8,1.6v17.1H160.3"/>
	<path fill="#FEFEFE" d="M165.5,41.3c0.6,2.7,2.8,4.3,5.2,4.3c2.1,0,4.2-1.2,4.2-3.6c0-4.4-9.8-5.8-9.8-11.1c0-2.5,2.3-4.4,5.4-4.4
		c2.6,0,3.1,0.8,4.2,0.8c0.2,0,0.4-0.1,0.6-0.3h0.5l0.5,3.9h-0.5c-0.9-2.2-2.8-3.6-4.9-3.6c-2,0-3.4,1.2-3.4,2.9
		c0,4.3,9.8,5.5,9.8,11.1c0,3-2.7,5.2-6.2,5.2c-1.7,0-3.8-0.8-4.3-0.8c-0.3,0-0.5,0.2-0.6,0.3h-0.5l-0.6-4.7H165.5"/>
	<path fill="#FEFEFE" d="M184.7,43c0,1.7,0.5,2.4,2.4,2.4h1v0.6h-8.5v-0.6h0.4c1.6,0,2.1-0.3,2.1-1.8V29.1c0-1.1-0.4-1.6-1.4-1.6
		h-1.5v-0.6c0.9,0,2.4-0.1,3.9-0.2c1.5-0.1,3-0.1,3.8-0.1c6.4,0,7.9,3.1,7.9,5.4c0,3.6-2.9,5.8-7.4,5.8c-0.9,0-1.7-0.1-2.6-0.2V43
		 M184.7,37.1c0.4,0.1,1.1,0.2,1.7,0.2c3.3,0,5.5-2.3,5.5-5.4c0-2.4-0.9-4.7-5-4.7c-0.7,0-1.4,0-2.1,0.1V37.1z"/>
	<path fill="#FEFEFE" d="M207,46.4c-6,0-11.1-3.9-11.1-9.6c0-6.1,4.7-10.4,11.2-10.4c5.8,0,10.7,3.9,10.7,9.5
		C217.9,42.1,212.9,46.4,207,46.4 M206.3,27.2c-5.4,0-7.5,5-7.5,8.7c0,5.7,3.9,9.8,8.8,9.8c5,0,7.4-4.4,7.4-8.8
		C215,31.2,211.4,27.2,206.3,27.2z"/>
	<path fill="#FEFEFE" d="M237.8,46.3c-2.3,0-4.2-0.4-6.9-4.6c-0.4-0.6-2.1-3.3-2.5-3.8h-4.1V42c0,2.7,0.2,3.4,3.3,3.4v0.6h-8.8v-0.6
		c2.9,0,2.9-0.8,2.9-3.4V29.7c0-1.5-0.5-2.1-3-2.1V27c2.6-0.2,5.2-0.3,7.8-0.3c2.4,0,3.8,0.3,5.1,0.9c1.3,0.6,3.1,2,3.1,4.5
		c0,0.8-0.3,3.7-4,5l3.7,5.7c1.4,2.1,2.4,2.9,3.4,3.1V46.3 M224.2,37.4h1.2c1.3,0,2.3,0,3.4-0.3c2.1-0.6,2.9-3,2.9-4.8
		c0-1.2-0.4-3.4-2.4-4.3c-1.5-0.7-3.4-0.6-5.1-0.6V37.4z"/>
	<path fill="#FEFEFE" d="M151.9,19.9c-2.3,0-4.2-0.4-6.9-4.6c-0.4-0.6-2.1-3.3-2.5-3.8h-4.1v4.1c0,2.7,0.2,3.4,3.3,3.4v0.6h-8.8
		v-0.6c2.9,0,2.9-0.8,2.9-3.4V3.2c0-1.5-0.5-2.1-3-2.1V0.5c2.6-0.2,5.2-0.3,7.8-0.3c2.4,0,3.8,0.3,5.1,0.9c1.3,0.6,3.1,2,3.1,4.5
		c0,0.8-0.3,3.7-4,5l3.7,5.7c1.4,2.1,2.4,2.9,3.4,3.1V19.9 M138.3,10.9h1.2c1.3,0,2.3,0,3.4-0.3c2.1-0.6,2.9-3,2.9-4.8
		c0-1.2-0.4-3.4-2.4-4.3c-1.5-0.7-3.4-0.6-5.1-0.6V10.9z"/>
	<path fill="#FEFEFE" d="M248.1,43.1c0,1.7,0.6,2.2,2.4,2.2h1.1v0.6H242v-0.6h1.1c1.9,0,2.4-0.6,2.4-2.2V28h-5.3
		c-1.2,0-1.8,0.7-2.2,3.4h-0.6l0.5-5h0.6c0,0.2,0.2,0.3,0.3,0.4c0.2,0.1,0.4,0.1,0.6,0.1h14.7c0.4,0,0.9-0.1,0.9-0.5h0.6l0.5,5h-0.5
		c-0.5-2.7-1-3.4-2.2-3.4h-5.3V43.1"/>
	<path fill="#FEFEFE" d="M261.5,37.5l-1.8,4.8c-0.2,0.6-0.6,1.5-0.6,1.9c0,0.8,0.8,1.1,2.5,1.1h0.5v0.6H255v-0.6c2,0,2.3-0.4,3.3-3
		l5.6-15.2l-0.3-0.7h2.7l6.4,17c0.6,1.6,1.3,1.9,2.8,1.9v0.6H267v-0.6h0.8c1.7,0,2.4-0.2,2.4-1c0-0.5-0.2-0.9-0.3-1.3l-2.1-5.6
		H261.5 M264.6,29l-2.6,7.1h5.3L264.6,29z"/>
	<path fill="#FEFEFE" d="M284.9,43.1c0,1.7,0.6,2.2,2.4,2.2h1.1v0.6h-9.6v-0.6h1.1c1.9,0,2.4-0.6,2.4-2.2V28h-5.3
		c-1.2,0-1.8,0.7-2.2,3.4h-0.5l0.5-5h0.6c0,0.2,0.2,0.3,0.3,0.4c0.2,0.1,0.4,0.1,0.6,0.1H291c0.4,0,0.9-0.1,0.9-0.5h0.6l0.5,5h-0.6
		c-0.5-2.7-1-3.4-2.2-3.4h-5.3V43.1"/>
	<path fill="#FEFEFE" d="M302.8,45.9h-7.4v-0.6c1.9-0.1,2.3-0.6,2.3-2.6v-13c0-1.7-0.6-2.1-2.3-2.2v-0.6h7.4v0.6
		c-1.9,0-2.6,0.4-2.6,2.5v13c0,1.8,0.5,2.4,2.6,2.4V45.9"/>
	<path fill="#FEFEFE" d="M316.1,46.4c-6,0-11.1-3.9-11.1-9.6c0-6.1,4.7-10.4,11.2-10.4c5.8,0,10.7,3.9,10.7,9.5
		C327,42.1,322.1,46.4,316.1,46.4 M315.5,27.2c-5.4,0-7.5,5-7.5,8.7c0,5.7,3.9,9.8,8.8,9.8c5,0,7.4-4.4,7.4-8.8
		C324.1,31.2,320.5,27.2,315.5,27.2z"/>
	<path fill="#FEFEFE" d="M348.7,46.1l-15.9-16.6v13.1c0,2.2,0.5,2.7,3.1,2.7v0.6h-7.1v-0.6h0.1c1.9,0,2.5-0.6,2.5-2.1V28.2
		c-0.7-0.5-1.5-0.7-2.6-0.8v-0.6h4.8l14.4,15V29.7c0-1.9-0.6-2.2-3-2.3v-0.6h7.2v0.6c-2.3,0-2.8,0.4-2.8,1.6v17.1H348.7"/>
	<path fill="#FEFEFE" d="M91.6,72.7h-7.4v-0.6c1.9-0.1,2.3-0.6,2.3-2.6v-13c0-1.7-0.6-2.1-2.3-2.2v-0.6h7.4v0.6
		c-1.9,0-2.6,0.4-2.6,2.5v13c0,1.8,0.5,2.4,2.6,2.4V72.7"/>
	<path fill="#FEFEFE" d="M113.8,72.9L97.9,56.3v13.1c0,2.2,0.5,2.7,3.1,2.7v0.6h-7.1v-0.6h0.1c1.9,0,2.5-0.6,2.5-2.1V55
		c-0.7-0.5-1.5-0.7-2.6-0.8v-0.6h4.8l14.4,15V56.5c0-1.9-0.6-2.2-3-2.3v-0.6h7.2v0.6c-2.3,0-2.8,0.4-2.8,1.6v17.1H113.8"/>
	<path fill="#FEFEFE" d="M119.8,68.1c0.6,2.7,2.8,4.3,5.2,4.3c2.1,0,4.2-1.2,4.2-3.6c0-4.4-9.8-5.8-9.8-11.1c0-2.5,2.3-4.4,5.4-4.4
		c2.6,0,3.1,0.8,4.2,0.8c0.2,0,0.4-0.1,0.6-0.3h0.5l0.5,3.9H130c-0.9-2.2-2.8-3.6-4.9-3.6c-2,0-3.4,1.2-3.4,2.9
		c0,4.3,9.8,5.5,9.8,11.1c0,3-2.7,5.2-6.2,5.2c-1.7,0-3.8-0.8-4.3-0.8c-0.3,0-0.5,0.2-0.6,0.3h-0.5l-0.6-4.7H119.8"/>
	<path fill="#FEFEFE" d="M144.5,69.9c0,1.7,0.6,2.2,2.4,2.2h1.1v0.6h-9.6v-0.6h1.1c1.9,0,2.4-0.6,2.4-2.2V54.8h-5.3
		c-1.2,0-1.8,0.7-2.2,3.4h-0.5l0.5-5h0.6c0,0.2,0.2,0.3,0.3,0.4c0.2,0.1,0.4,0.1,0.6,0.1h14.7c0.4,0,0.9-0.1,0.9-0.5h0.6l0.5,5h-0.6
		c-0.5-2.7-1-3.4-2.2-3.4h-5.3V69.9"/>
	<path fill="#FEFEFE" d="M162.1,72.7h-7.4v-0.6c1.9-0.1,2.3-0.6,2.3-2.6v-13c0-1.7-0.6-2.1-2.3-2.2v-0.6h7.4v0.6
		c-1.9,0-2.6,0.4-2.6,2.5v13c0,1.8,0.5,2.4,2.6,2.4V72.7"/>
	<path fill="#FEFEFE" d="M175.1,69.9c0,1.7,0.6,2.2,2.4,2.2h1.1v0.6H169v-0.6h1.1c1.9,0,2.4-0.6,2.4-2.2V54.8h-5.3
		c-1.2,0-1.8,0.7-2.2,3.4h-0.6l0.5-5h0.6c0,0.2,0.2,0.3,0.3,0.4c0.2,0.1,0.4,0.1,0.6,0.1h14.7c0.4,0,0.9-0.1,0.9-0.5h0.6l0.5,5h-0.6
		c-0.5-2.7-1-3.4-2.2-3.4h-5.3V69.9"/>
	<path fill="#FEFEFE" d="M208.1,53.7v0.6c-2.1,0-2.8,0.9-2.8,2.8v8.3c0,3.8-2.4,7.9-9.1,7.9c-5.8,0-8.8-3.3-8.8-7.7v-8.9
		c0-2-0.6-2.3-2.6-2.3v-0.6h7.9v0.6h-0.3c-1.7,0-2.4,0.5-2.4,2.2V65c0,4.1,2.4,6.6,7,6.6c3.5,0,7-1.4,7-6.6v-7.1
		c0-2.9-0.5-3.5-3-3.6v-0.6H208.1"/>
	<path fill="#FEFEFE" d="M220.1,69.9c0,1.7,0.6,2.2,2.4,2.2h1.1v0.6H214v-0.6h1.1c1.9,0,2.4-0.6,2.4-2.2V54.8h-5.3
		c-1.2,0-1.8,0.7-2.2,3.4h-0.6l0.5-5h0.6c0,0.2,0.2,0.3,0.3,0.4c0.2,0.1,0.4,0.1,0.6,0.1h14.7c0.4,0,0.9-0.1,0.9-0.5h0.6l0.5,5h-0.6
		c-0.5-2.7-1-3.4-2.2-3.4h-5.3V69.9"/>
	<path fill="#FEFEFE" d="M243.4,65.8h-0.6c-0.2-2.2-0.8-2.4-2.1-2.4h-5.2v6.5c0,1.4,0.5,1.7,1.7,1.7h4.7c2.1,0,2.8-0.8,3.6-3.5h0.6
		l-0.5,4.6h-16.3v-0.6h0.9c2.4,0,2.9-0.7,2.9-2.5V56.7c0-1.7-0.4-2.4-2.4-2.4h-0.7v-0.6h14.7l0.2,4.3h-0.6c-0.4-2.6-1.2-3.2-2.3-3.2
		h-6.5v7.5h5.5c1.1,0,1.6-0.5,1.8-2.3h0.6V65.8"/>
</g>
</svg>
